PathFileType	4	(X/Y/Z)	./resultDataOpenSim/trcMotMarkerGrf/sub09/qtm-14-02.trc
DataRate	CameraRate	NumFrames	NumMarkers	Units	OrigDataRate	OrigDataStartFrame	OrigNumFrames
250.000000	250.000000	13	24	m	250.000000	435	496
Frame#	Time	L.Toe.Tip			R.Toe.Tip			L.Ankle.Lat			R.Ankle.Lat			L.Ankle.Med			R.Ankle.Med			L.Heel			R.Heel			L.Knee.Lat			R.Knee.Lat			L.Knee.Med			R.Knee.Med			L.Thigh.Upper			R.Thigh.Upper			L.ASIS			R.ASIS			V.Sacral			L.Acromium			R.Acromium			C7			L.Elbow			R.Elbow			L.Wrist.Lat			R.Wrist.Lat
		X1	Y1	Z1	X2	Y2	Z2	X3	Y3	Z3	X4	Y4	Z4	X5	Y5	Z5	X6	Y6	Z6	X7	Y7	Z7	X8	Y8	Z8	X9	Y9	Z9	X10	Y10	Z10	X11	Y11	Z11	X12	Y12	Z12	X13	Y13	Z13	X14	Y14	Z14	X15	Y15	Z15	X16	Y16	Z16	X17	Y17	Z17	X18	Y18	Z18	X19	Y19	Z19	X20	Y20	Z20	X21	Y21	Z21	X22	Y22	Z22	X23	Y23	Z23	X24	Y24	Z24

435	1.736	1.7953342	0.11575481	-0.036873403	1.0457129	0.041859408	0.040269042	1.6426486	0.085426663	-0.061752427	0.92863245	0.12834511	0.090237636	1.6668729	0.11754072	0.029004934	0.9695963	0.16013492	0.0043170373	1.6001097	0.024023909	-0.0027892408	0.86643469	0.14961862	0.037384408	1.5160573	0.48458394	-0.10975125	1.2141867	0.4977673	0.1724382	1.5209159	0.48192164	0.0169632	1.2057012	0.48773845	0.046181215	1.3590502	0.8689824	-0.15580028	1.2878368	0.89207051	0.20950316	1.4243152	0.96219978	-0.087702773	1.4065243	0.96874032	0.15374221	1.2476803	1.0164331	0.0086510522	1.3949885	1.4255183	-0.13443246	1.3791744	1.4268445	0.19738572	1.3195964	1.4739557	0.031197239	1.2189669	1.1084619	-0.20432991	1.2461718	1.0731707	0.27295965	1.2962175	0.86768878	-0.27606389	1.4747619	0.90782576	0.28191017
436	1.74	1.7988313	0.11088468	-0.034798512	1.0461506	0.041881629	0.040317904	1.6458437	0.082882338	-0.060719803	0.93040015	0.12980215	0.091208146	1.6698322	0.11464355	0.030205381	0.97181029	0.16114757	0.0053212774	1.6018364	0.022373639	-0.0023232404	0.86862189	0.15207119	0.038374012	1.524471	0.4837561	-0.10926122	1.2201167	0.49615204	0.17324252	1.5296826	0.4817255	0.017241039	1.2117983	0.48574448	0.046950649	1.3652295	0.86781996	-0.15632574	1.295527	0.89031976	0.20944151	1.4309443	0.96081593	-0.088001195	1.4127484	0.96704468	0.15355475	1.2540677	1.0147209	0.0082775527	1.4005657	1.4240789	-0.13471884	1.3844789	1.4251733	0.19712284	1.3249611	1.4723599	0.030861445	1.2250829	1.1067314	-0.20486943	1.251949	1.0713875	0.27196943	1.3025941	0.86604904	-0.27644173	1.4800978	0.90605735	0.28200135
437	1.744	1.8021933	0.10560105	-0.032563992	1.0466194	0.041897649	0.040385153	1.6488221	0.080313261	-0.059586142	0.9323957	0.13136693	0.092216955	1.6725059	0.11169635	0.031503017	0.97417945	0.1621937	0.0064018986	1.6031028	0.021017162	-0.0019433407	0.87098061	0.15461902	0.039401051	1.532736	0.48282876	-0.10881547	1.2261839	0.49448552	0.1741442	1.5383547	0.48148417	0.017411203	1.2182673	0.48368652	0.047975539	1.3714799	0.86674517	-0.15690183	1.3022554	0.88862839	0.20920075	1.4376402	0.95950479	-0.088304323	1.4189921	0.96534348	0.15335772	1.2605055	1.0129664	0.0079229794	1.4061499	1.4226254	-0.13501299	1.3897993	1.4234966	0.19683244	1.330339	1.4707477	0.030507017	1.2312516	1.1049661	-0.20540853	1.2579681	1.0696001	0.27083701	1.3090602	0.86438235	-0.27680777	1.485374	0.9042528	0.28211123
438	1.748	1.805595	0.099747384	-0.030185168	1.0470931	0.041891485	0.040516644	1.651699	0.077845129	-0.058326309	0.93461299	0.13304642	0.093247925	1.6751065	0.1088792	0.032909465	0.97671047	0.16326774	0.0075579437	1.6040783	0.020093854	-0.0015096579	0.87351767	0.15725966	0.040449696	1.5407742	0.48181585	-0.10846381	1.232381	0.49277827	0.17515837	1.5469043	0.48113683	0.017465046	1.2251283	0.48159501	0.049277712	1.3778427	0.86572397	-0.15750758	1.3073445	0.88704884	0.2086282	1.4443651	0.95825863	-0.088591028	1.4252587	0.96364441	0.15316235	1.2669565	1.0111883	0.0075865325	1.4117429	1.4211588	-0.13531709	1.3951379	1.4218187	0.1965159	1.3357154	1.4691082	0.030134363	1.2374785	1.1031733	-0.20593785	1.2640225	1.0678209	0.26973601	1.3156122	0.86269174	-0.27715463	1.4905885	0.90241488	0.28223915
439	1.752	1.8091731	0.093333691	-0.027712055	1.0475686	0.041858351	0.040720806	1.6546265	0.075677958	-0.057028874	0.9369759	0.13480034	0.094320488	1.6778976	0.10639525	0.034349704	0.97941114	0.16436418	0.0087943978	1.6049666	0.019770789	-0.00097073315	0.87623699	0.15998963	0.041515055	1.5486799	0.48075323	-0.10827505	1.2387111	0.49104211	0.17628457	1.5553066	0.48063764	0.01742812	1.2322135	0.47946277	0.05072939	1.3843165	0.86472376	-0.1581094	1.3113469	0.88551506	0.20779929	1.4510649	0.95707054	-0.088840003	1.4315649	0.96194297	0.1529775	1.2733786	1.0094248	0.0072754234	1.4173477	1.4196789	-0.13563417	1.4005005	1.4201392	0.19617971	1.3410751	1.4674474	0.029744738	1.2437612	1.1013565	-0.20645289	1.2699387	1.0660629	0.26882118	1.3222478	0.86097842	-0.27748409	1.4957336	0.90054293	0.28238335
440	1.756	1.812973	0.086610781	-0.02520908	1.0480714	0.041818321	0.040977313	1.657741	0.074008327	-0.055879077	0.93941646	0.13658812	0.095465926	1.6810717	0.1043505	0.035672147	0.98229128	0.16548033	0.010122141	1.6059195	0.020195882	-0.00044194821	0.87914229	0.16280664	0.042603573	1.5566447	0.47971199	-0.10826856	1.2451887	0.48928361	0.17749763	1.5635326	0.47998499	0.017357083	1.2393146	0.47724354	0.052137009	1.3908964	0.86371669	-0.15868385	1.3157357	0.88388731	0.20697571	1.4576913	0.95594182	-0.089035371	1.4379242	0.96022457	0.15280366	1.2797449	1.0077126	0.0070072255	1.4229674	1.4181854	-0.1359651	1.4058856	1.4184603	0.19583474	1.3464183	1.4658043	0.029340182	1.2500909	1.09952	-0.20695661	1.2757278	1.064336	0.26810293	1.3289672	0.85924363	-0.27780581	1.5008139	0.89863202	0.28254157
441	1.76	1.8168914	0.080021727	-0.022788399	1.0486235	0.041796997	0.041269762	1.6610821	0.072906066	-0.055062877	0.94192577	0.13840438	0.096705254	1.6846032	0.10270143	0.036718737	0.98535528	0.16661918	0.011554248	1.6070039	0.0213365	-0.00013549317	0.88223995	0.16571457	0.04373461	1.5647521	0.47881272	-0.1083824	1.2518429	0.48750178	0.17875683	1.5715737	0.47924551	0.017309768	1.2463915	0.47488813	0.053425262	1.3976044	0.8626823	-0.15922133	1.3218763	0.88204769	0.20642074	1.4642239	0.95487347	-0.089180442	1.4443274	0.95847514	0.15262905	1.286041	1.0060776	0.0067792779	1.4286026	1.4166831	-0.13630981	1.4112777	1.4167954	0.19549752	1.3517735	1.4642357	0.028922208	1.2564575	1.0976631	-0.20745441	1.2814834	1.0626409	0.26749683	1.3357717	0.85748709	-0.27812533	1.5058459	0.89667401	0.2827108
442	1.764	1.8206669	0.074031475	-0.020619048	1.0492227	0.041808671	0.041593231	1.6645469	0.072259375	-0.054664053	0.94454185	0.14026758	0.098046086	1.688229	0.10133307	0.03740576	0.98860163	0.16778638	0.01310198	1.6082152	0.022905374	-0.00022603251	0.88554327	0.16872713	0.044937017	1.5729569	0.47823149	-0.10853719	1.2587073	0.48569546	0.18002732	1.5794679	0.47857578	0.017297242	1.2535441	0.47237545	0.054646212	1.4044419	0.86162098	-0.1597036	1.32987	0.87999197	0.20617803	1.4706713	0.9538569	-0.089301173	1.4507466	0.95669344	0.15243398	1.2922549	1.0045458	0.0065520278	1.4342504	1.4151827	-0.13666898	1.4166539	1.4151602	0.19518582	1.3571851	1.4627817	0.028497954	1.2628581	1.0957779	-0.20795247	1.287245	1.0609698	0.2669189	1.3426565	0.85570731	-0.27843599	1.5108364	0.89466555	0.28288761
443	1.768	1.8240035	0.068888215	-0.018790933	1.0498614	0.041865459	0.041934305	1.6679383	0.071860073	-0.054633093	0.9473141	0.1421944	0.099488607	1.6915936	0.1001613	0.03775772	0.99203164	0.16898535	0.014767528	1.6095087	0.024507783	-0.00075744061	0.88907475	0.17186732	0.046238755	1.5812971	0.47817053	-0.10870781	1.2658018	0.48386946	0.18129091	1.5872976	0.47821307	0.017265116	1.2608482	0.46971665	0.055839813	1.4113574	0.86056748	-0.16009928	1.3385227	0.87781778	0.20605516	1.4770455	0.95288729	-0.089428804	1.4571533	0.95489758	0.15220333	1.2983815	1.0031388	0.0062875787	1.4399067	1.4136955	-0.13704338	1.4220059	1.4135629	0.19490871	1.3626845	1.4614511	0.028085223	1.2692996	1.0938572	-0.20845697	1.2929856	1.0593156	0.26631473	1.3496144	0.85390607	-0.27872808	1.5157745	0.89261574	0.28307311
444	1.772	1.8267475	0.064499264	-0.017197212	1.0505441	0.041985855	0.042269722	1.6710877	0.071554594	-0.054845226	0.95027916	0.14419726	0.1010261	1.6944542	0.099155007	0.037871186	0.99565371	0.17022378	0.016529737	1.610827	0.025863657	-0.001634771	0.89286206	0.17516077	0.04765376	1.5900141	0.47877924	-0.1088988	1.2731219	0.4820361	0.18254214	1.5951686	0.47838913	0.017139295	1.2683148	0.46695344	0.056992716	1.4183098	0.85958443	-0.16039529	1.3465763	0.87562334	0.205844	1.4833374	0.95198145	-0.089583876	1.4635289	0.95311803	0.15193533	1.3044277	1.0018497	0.0059905804	1.445572	1.4122309	-0.13743195	1.4273468	1.4120098	0.19466328	1.3682737	1.4602331	0.027697716	1.2757957	1.0919065	-0.20897256	1.2986617	1.05768	0.26565216	1.3566459	0.85209338	-0.27899986	1.5206416	0.89054271	0.2832747
445	1.776	1.8289325	0.060545276	-0.015651666	1.0512765	0.042184055	0.042599089	1.6739323	0.07131187	-0.055175393	0.95345188	0.14629673	0.10263872	1.6968039	0.098310577	0.037844261	0.9994751	0.17152481	0.018332433	1.6121125	0.02690027	-0.0027078141	0.89693103	0.17862371	0.04917228	1.5993737	0.48005642	-0.10907505	1.280653	0.48021779	0.18378559	1.6031779	0.47920369	0.016892642	1.2759686	0.46415397	0.05812113	1.4253253	0.85873772	-0.16062328	1.3537372	0.87344403	0.20550673	1.4895336	0.95116753	-0.089771723	1.4698589	0.95138254	0.15163807	1.3104067	1.0006397	0.0057046795	1.451252	1.4108002	-0.13782695	1.4326894	1.4105151	0.19444156	1.3739291	1.4591103	0.027329391	1.2823594	1.0899465	-0.20950481	1.304255	1.0560795	0.26492154	1.3637569	0.8502872	-0.27925306	1.5254253	0.88846315	0.28349609
446	1.78	1.8306934	0.056759274	-0.014078778	1.0520522	0.042454498	0.042966998	1.6765065	0.071163976	-0.055516846	0.95683707	0.14852289	0.10429112	1.698802	0.097624518	0.037753304	1.0034977	0.1729263	0.020106092	1.6133202	0.027691623	-0.0038647593	0.90130024	0.18225287	0.050761297	1.6094025	0.48180402	-0.1091716	1.2883971	0.47844595	0.18503731	1.6113648	0.48056669	0.016560432	1.2839094	0.46140262	0.059345761	1.4324326	0.85807261	-0.16084233	1.3604253	0.87127836	0.20513147	1.4956504	0.95046197	-0.089980048	1.4761297	0.94971078	0.1513208	1.3163364	0.9994703	0.0054861592	1.456953	1.4094178	-0.13820973	1.4380351	1.4090991	0.19423706	1.3796106	1.4580549	0.026961256	1.2889953	1.0880065	-0.21005959	1.3097631	1.0545472	0.26413552	1.3709523	0.84850616	-0.27948423	1.530122	0.88638502	0.28373054
447	1.784	1.8321866	0.053135007	-0.012529881	1.0528593	0.042773213	0.043430887	1.6789045	0.071117154	-0.055763244	0.96045758	0.15090082	0.10594404	1.7005827	0.097063225	0.037692636	1.0077403	0.17447121	0.021842544	1.6144351	0.028349253	-0.0050212125	0.90597308	0.18602648	0.052375259	1.6198298	0.48369429	-0.10916073	1.2963645	0.47674362	0.18631667	1.6196883	0.48225768	0.016201962	1.2922929	0.45878884	0.060871057	1.4395769	0.85760629	-0.1610971	1.3670001	0.86913192	0.20479898	1.5017277	0.94986955	-0.09018548	1.4823339	0.9481172	0.15098924	1.3222434	0.99832995	0.0053792564	1.4626793	1.4080958	-0.13855633	1.4433844	1.4077795	0.19404379	1.3852758	1.4570236	0.02657726	1.295698	1.0861119	-0.21063232	1.3151336	1.0531168	0.26330712	1.3782318	0.84676339	-0.2796869	1.5347325	0.88430801	0.28397173
